<svg width="396" height="88" viewBox="0 0 396 88" fill="none" xmlns="http://www.w3.org/2000/svg">
<path d="M227.957 33.8504C228.124 33.8968 228.292 33.9431 228.465 33.9909C234.947 35.7951 241.008 39.0849 245.928 44.7501C246.067 44.9087 246.206 45.0673 246.349 45.2307C247.051 46.0597 247.551 46.7119 247.817 47.9102C247.959 47.9102 248.102 47.9102 248.248 47.9102C251.922 54.1823 253.061 61.3799 252.997 69C252.411 68.265 252.368 67.6087 252.174 66.6004C251.577 63.6469 250.672 61.0023 249.328 58.4551C249.228 58.2662 249.128 58.0773 249.026 57.8827C247.214 54.6599 244.301 52.0619 241.187 51.2777C240.434 51.1473 239.723 51.134 238.963 51.1453C238.672 51.1443 238.381 51.1427 238.09 51.1406C237.638 51.1377 237.188 51.1379 236.736 51.1483C234.825 51.1876 233.52 50.9903 232.085 49.2797C231.933 49.0955 231.782 48.9112 231.627 48.7214C231.271 48.3923 230.912 48.0701 230.547 47.7581C230.284 47.5312 230.284 47.5312 230.016 47.2998C229.745 47.0666 229.745 47.0666 229.468 46.8287C229.063 46.4743 228.658 46.1194 228.254 45.7641C228.073 45.6055 227.892 45.4469 227.706 45.2835C227.575 45.1688 227.444 45.0542 227.309 44.936C227.978 44.0727 228.644 43.4008 229.468 42.773C229.61 42.773 229.753 42.773 229.9 42.773C229.9 42.5945 229.9 42.4161 229.9 42.2322C229.564 42.239 229.564 42.239 229.222 42.246C228.499 42.234 227.846 42.1564 227.134 42.0125C224.682 41.551 222.217 41.225 219.754 40.8803C219.457 40.8384 219.457 40.8384 219.154 40.7956C218.626 40.7211 218.097 40.6483 217.568 40.5761C217.351 40.5456 217.351 40.5456 217.129 40.5143C214.233 40.1281 211.335 40.0217 208.425 40.0047C208.251 40.0034 208.077 40.0021 207.898 40.0008C206.584 39.991 205.269 39.9866 203.955 39.9847C203.665 39.9841 203.665 39.9841 203.37 39.9836C197.276 39.9752 191.265 40.167 185.215 41.1507C184.863 41.2063 184.511 41.2618 184.158 41.3172C181.192 41.7881 178.238 42.3434 175.285 42.9272C167.328 44.4977 159.27 45.4453 151.242 46.2297C150.683 46.2873 150.124 46.3534 149.565 46.4206C144.793 46.9635 139.977 46.8876 135.189 46.8937C134.401 46.8948 133.613 46.8986 132.825 46.9048C118.957 47.0109 103.866 45.7709 91.0964 38.4469C90.9235 38.3494 90.7506 38.252 90.5724 38.1515C87.569 36.4499 84.766 34.5316 82.0299 32.2281C82.8315 31.8934 83.251 32.0491 84.0773 32.2577C84.3645 32.3284 84.6517 32.399 84.939 32.4697C85.0896 32.5076 85.2402 32.5454 85.3954 32.5844C87.9027 33.213 90.4039 33.7688 92.9454 34.1374C93.8299 34.2667 94.6965 34.42 95.5678 34.653C96.6258 34.922 97.6791 35.0999 98.7521 35.2424C98.9444 35.2688 99.1366 35.2951 99.3347 35.3222C99.9659 35.4079 100.597 35.4912 101.229 35.5741C101.557 35.6176 101.557 35.6176 101.892 35.662C105.48 36.1353 109.072 36.5367 112.67 36.8922C112.893 36.9146 113.117 36.9369 113.347 36.96C114.852 37.1094 116.357 37.2449 117.864 37.3654C118.143 37.388 118.143 37.388 118.428 37.4111C122.915 37.7554 127.417 37.677 131.91 37.671C133.062 37.6695 134.213 37.6704 135.364 37.6719C140.473 37.6778 145.571 37.6264 150.676 37.3654C151.122 37.3439 151.567 37.3225 152.013 37.3012C152.992 37.2532 153.971 37.2002 154.949 37.1436C155.518 37.1112 156.086 37.0812 156.655 37.0511C158.592 36.9434 160.509 36.7716 162.435 36.4842C163.492 36.3276 164.547 36.2078 165.61 36.1201C165.833 36.1015 165.833 36.1015 166.06 36.0825C166.372 36.0565 166.683 36.0306 166.995 36.0046C170.991 35.6646 174.965 35.1149 178.941 34.5263C179.214 34.4859 179.487 34.4455 179.769 34.4039C182.745 33.9617 185.72 33.5059 188.693 33.0344C190.697 32.7175 192.701 32.4444 194.713 32.2281C194.928 32.2033 195.143 32.1785 195.364 32.153C206.089 30.9544 217.415 30.834 227.957 33.8504Z" fill="#08090C"/>
<path d="M107.502 0.0527327C107.776 0.0565231 108.05 0.0603134 108.332 0.0642186C111.247 0.119015 114.141 0.473481 117.041 0.830079C117.22 0.852005 117.399 0.87393 117.583 0.89652C121.888 1.43091 126.146 2.23349 130.398 3.22972C130.698 3.29987 130.698 3.29987 131.005 3.37143C134.433 4.17523 137.815 5.10737 141.178 6.27151C141.392 6.34487 141.606 6.41824 141.827 6.49383C146.657 8.15992 151.473 10.0789 156.098 12.4945C156.836 12.879 157.582 13.2306 158.333 13.5743C160.368 14.5095 162.336 15.5918 164.303 16.7319C164.467 16.8266 164.631 16.9212 164.8 17.0187C169.936 19.9802 175.047 23.0883 179.836 26.868C180.894 27.6964 181.975 28.4734 183.056 29.2539C182.119 29.6451 181.468 29.13 180.587 28.6963C175.036 26.0677 169.304 23.9189 163.595 21.9021C162.911 21.6586 162.229 21.4082 161.548 21.1573C157.949 19.8387 154.332 18.6726 150.676 17.6275C150.529 17.5855 150.383 17.5434 150.232 17.5001C144.869 15.9616 139.475 14.6887 134.052 13.533C133.385 13.3909 132.719 13.2435 132.054 13.0889C129.051 12.4045 126.018 12.0651 122.982 11.6983C122.399 11.6275 121.815 11.5551 121.232 11.4827C120.524 11.3948 119.816 11.3078 119.108 11.2208C118.851 11.1892 118.594 11.1577 118.33 11.1252C115.755 10.8135 113.185 10.5651 110.599 10.4508C110.222 10.434 110.222 10.434 109.838 10.4169C107.153 10.3035 104.468 10.25 101.782 10.2427C101.526 10.242 101.269 10.2413 101.006 10.2406C87.4849 10.2367 73.9541 12.5515 60.8747 16.8164C62.7214 23.4559 67.8312 26.7937 72.6126 29.6954C73.5892 30.2797 74.5701 30.8515 75.5538 31.417C74.8808 31.6979 74.6389 31.6836 73.9601 31.5437C73.765 31.5038 73.5699 31.4639 73.3689 31.4228C73.155 31.3763 72.941 31.3297 72.7205 31.2818C72.4959 31.2339 72.2714 31.1859 72.04 31.1366C70.0364 30.6969 68.0454 30.1871 66.0556 29.6595C65.9091 29.6208 65.7626 29.5821 65.6116 29.5422C62.3325 28.6722 59.1044 27.6529 55.8963 26.4318C55.6119 26.3242 55.3276 26.2166 55.0432 26.109C52.5747 25.1722 50.1078 24.2208 47.7068 23.0352C47.4803 22.925 47.2538 22.8149 47.0204 22.7014C44.1755 21.3002 41.3796 19.7677 38.6403 18.0669C38.4942 17.9767 38.3482 17.8864 38.1977 17.7935C37.6222 17.4307 37.1562 17.1205 36.6975 16.546C40.7923 14.6038 44.882 12.7038 49.0692 11.0934C49.6202 10.8794 50.1689 10.6584 50.7171 10.4339C52.9633 9.51731 55.228 8.7427 57.517 8.01209C58.4104 7.72593 59.2972 7.41929 60.1829 7.09797C62.0493 6.42237 63.9287 5.89765 65.8346 5.4265C67.0187 5.13125 68.1834 4.79103 69.3509 4.40524C71.6507 3.66319 73.9924 3.21871 76.3363 2.75655C76.5723 2.7096 76.8083 2.66265 77.0514 2.61428C81.283 1.77638 85.5139 1.0936 89.7827 0.641387C90.2168 0.595194 90.6509 0.546987 91.0849 0.498704C96.549 -0.0911709 102.023 -0.0311101 107.502 0.0527327Z" fill="#07080C"/>
<path d="M0 11.9495C0.121553 11.958 0.243106 11.9664 0.368342 11.9751C3.39452 12.1752 6.40686 12.2312 9.43625 12.1972C10.633 12.1854 11.8297 12.1829 13.0265 12.1797C14.0527 12.1761 15.0784 12.1665 16.1045 12.1449C24.7498 11.971 24.7498 11.971 27.9115 15.3539C28.4482 15.9107 29.0218 16.3197 29.6279 16.7488C29.8285 16.8941 30.0292 17.0395 30.2359 17.1892C31.4048 17.9983 32.5991 18.7386 33.7996 19.4706C34.1659 19.6945 34.5317 19.92 34.8971 20.1465C42.8332 25.067 51.092 28.9277 59.4987 32.3802C59.6883 32.4586 59.878 32.537 60.0734 32.6177C62.2823 33.5275 64.4937 34.3466 66.7561 35.0228C67.8171 35.3401 68.8501 35.7077 69.8873 36.1318C71.9569 36.9673 74.0657 37.5949 76.1774 38.2398C76.8261 38.4398 77.4735 38.6455 78.1207 38.8535C81.4209 39.9114 84.7394 40.8224 88.0742 41.6915C88.0742 41.7807 88.0742 41.8699 88.0742 41.9619C85.3815 41.807 82.7117 41.49 80.0325 41.1242C76.7533 40.6775 73.4784 40.2526 70.1869 39.9783C68.6108 39.8444 67.0454 39.6461 65.4755 39.427C60.8008 38.7902 56.1048 38.4328 51.4139 38.0376C50.422 37.954 49.4302 37.8679 48.4386 37.7789C43.3632 37.3241 38.3062 37.0193 33.2167 37.0105C32.9935 37.0095 32.7704 37.0086 32.5405 37.0076C30.1091 37.0018 27.6943 37.0925 25.2701 37.3337C25.0589 37.3542 24.8477 37.3746 24.6301 37.3957C21.846 37.702 19.4563 38.6172 17.2695 40.8803C17.0883 41.0483 16.9071 41.2163 16.7205 41.3894C15.4372 42.7745 14.6241 44.8637 14.0314 46.8287C11.5177 47.0362 11.5177 47.0362 10.5101 46.3218C9.92484 44.9643 9.9772 43.5594 10.2946 42.0791C10.5061 41.3474 10.7388 40.6331 10.9823 39.9171C11.068 39.6529 11.1537 39.3886 11.242 39.1164C11.6188 37.9565 12.0056 36.802 12.3925 35.6474C12.5954 35.0403 12.797 34.4325 12.9973 33.8241C13.1877 33.2466 13.3811 32.6706 13.5781 32.0966C14.1251 30.4385 14.4157 29.159 14.2473 27.3613C13.7417 26.5894 13.221 26.3083 12.4799 25.9587C12.2854 25.8656 12.0909 25.7725 11.8905 25.6767C11.7421 25.608 11.5938 25.5393 11.441 25.4686C11.4354 25.2759 11.4299 25.0831 11.4241 24.8845C11.3162 22.6006 10.9916 21.2596 9.62047 19.7251C8.54229 18.5641 7.36252 17.6432 6.15224 16.715C5.92559 16.5393 5.69894 16.3636 5.46543 16.1826C3.67063 14.7996 1.852 13.4787 0 12.2199C0 12.1307 0 12.0415 0 11.9495Z" fill="#07080B"/>
<path d="M161.95 80V76.37H167.32C168.68 76.37 169.87 76.09 170.89 75.53C171.91 74.95 172.7 74.14 173.26 73.1C173.84 72.06 174.13 70.83 174.13 69.41C174.13 68.03 173.84 66.83 173.26 65.81C172.68 64.77 171.88 63.97 170.86 63.41C169.84 62.83 168.66 62.54 167.32 62.54H161.86V58.91H167.38C168.94 58.91 170.38 59.17 171.7 59.69C173.04 60.21 174.2 60.95 175.18 61.91C176.18 62.85 176.95 63.96 177.49 65.24C178.05 66.52 178.33 67.92 178.33 69.44C178.33 70.96 178.05 72.37 177.49 73.67C176.95 74.95 176.19 76.07 175.21 77.03C174.23 77.97 173.07 78.7 171.73 79.22C170.41 79.74 168.98 80 167.44 80H161.95ZM159.16 80V58.91H163.24V80H159.16ZM187.212 80.3C185.892 80.3 184.702 79.97 183.642 79.31C182.582 78.65 181.752 77.75 181.152 76.61C180.552 75.47 180.252 74.19 180.252 72.77C180.252 71.33 180.552 70.04 181.152 68.9C181.752 67.76 182.582 66.86 183.642 66.2C184.702 65.54 185.892 65.21 187.212 65.21C188.252 65.21 189.182 65.42 190.002 65.84C190.822 66.26 191.472 66.85 191.952 67.61C192.452 68.35 192.722 69.19 192.762 70.13V75.35C192.722 76.31 192.452 77.16 191.952 77.9C191.472 78.64 190.822 79.23 190.002 79.67C189.182 80.09 188.252 80.3 187.212 80.3ZM187.932 76.67C189.032 76.67 189.922 76.31 190.602 75.59C191.282 74.85 191.622 73.9 191.622 72.74C191.622 71.98 191.462 71.31 191.142 70.73C190.842 70.13 190.412 69.67 189.852 69.35C189.312 69.01 188.672 68.84 187.932 68.84C187.212 68.84 186.572 69.01 186.012 69.35C185.472 69.67 185.042 70.13 184.722 70.73C184.422 71.31 184.272 71.98 184.272 72.74C184.272 73.52 184.422 74.21 184.722 74.81C185.042 75.39 185.472 75.85 186.012 76.19C186.572 76.51 187.212 76.67 187.932 76.67ZM191.412 80V76.1L192.042 72.56L191.412 69.08V65.51H195.312V80H191.412ZM203.769 80.33C202.949 80.33 202.139 80.22 201.339 80C200.559 79.78 199.839 79.48 199.179 79.1C198.519 78.7 197.949 78.22 197.469 77.66L199.809 75.29C200.309 75.85 200.889 76.27 201.549 76.55C202.209 76.83 202.939 76.97 203.739 76.97C204.379 76.97 204.859 76.88 205.179 76.7C205.519 76.52 205.689 76.25 205.689 75.89C205.689 75.49 205.509 75.18 205.149 74.96C204.809 74.74 204.359 74.56 203.799 74.42C203.239 74.26 202.649 74.09 202.029 73.91C201.429 73.71 200.849 73.46 200.289 73.16C199.729 72.84 199.269 72.41 198.909 71.87C198.569 71.31 198.399 70.59 198.399 69.71C198.399 68.79 198.619 67.99 199.059 67.31C199.519 66.63 200.169 66.1 201.009 65.72C201.849 65.34 202.839 65.15 203.979 65.15C205.179 65.15 206.259 65.36 207.219 65.78C208.199 66.2 209.009 66.83 209.649 67.67L207.279 70.04C206.839 69.5 206.339 69.11 205.779 68.87C205.239 68.63 204.649 68.51 204.009 68.51C203.429 68.51 202.979 68.6 202.659 68.78C202.359 68.96 202.209 69.21 202.209 69.53C202.209 69.89 202.379 70.17 202.719 70.37C203.079 70.57 203.539 70.75 204.099 70.91C204.659 71.05 205.239 71.22 205.839 71.42C206.459 71.6 207.039 71.86 207.579 72.2C208.139 72.54 208.589 72.99 208.929 73.55C209.289 74.11 209.469 74.83 209.469 75.71C209.469 77.13 208.959 78.26 207.939 79.1C206.919 79.92 205.529 80.33 203.769 80.33ZM221.869 80V71.69C221.869 70.83 221.599 70.13 221.059 69.59C220.519 69.05 219.819 68.78 218.959 68.78C218.399 68.78 217.899 68.9 217.459 69.14C217.019 69.38 216.669 69.72 216.409 70.16C216.169 70.6 216.049 71.11 216.049 71.69L214.519 70.91C214.519 69.77 214.759 68.78 215.239 67.94C215.719 67.08 216.379 66.41 217.219 65.93C218.079 65.45 219.059 65.21 220.159 65.21C221.259 65.21 222.229 65.45 223.069 65.93C223.929 66.41 224.599 67.07 225.079 67.91C225.559 68.75 225.799 69.72 225.799 70.82V80H221.869ZM212.119 80V58.31H216.049V80H212.119ZM237.005 80.3C235.965 80.3 235.025 80.08 234.185 79.64C233.345 79.2 232.675 78.6 232.175 77.84C231.675 77.08 231.405 76.23 231.365 75.29V70.13C231.405 69.19 231.675 68.35 232.175 67.61C232.695 66.85 233.375 66.26 234.215 65.84C235.055 65.42 235.985 65.21 237.005 65.21C238.345 65.21 239.545 65.54 240.605 66.2C241.665 66.86 242.495 67.76 243.095 68.9C243.715 70.04 244.025 71.33 244.025 72.77C244.025 74.19 243.715 75.47 243.095 76.61C242.495 77.75 241.665 78.65 240.605 79.31C239.545 79.97 238.345 80.3 237.005 80.3ZM228.965 80V58.31H232.895V69.08L232.235 72.56L232.865 76.1V80H228.965ZM236.345 76.67C237.065 76.67 237.695 76.51 238.235 76.19C238.795 75.85 239.225 75.39 239.525 74.81C239.845 74.21 240.005 73.52 240.005 72.74C240.005 71.98 239.845 71.31 239.525 70.73C239.225 70.13 238.795 69.67 238.235 69.35C237.675 69.01 237.035 68.84 236.315 68.84C235.595 68.84 234.955 69.01 234.395 69.35C233.855 69.67 233.425 70.13 233.105 70.73C232.805 71.31 232.655 71.98 232.655 72.74C232.655 73.52 232.805 74.21 233.105 74.81C233.425 75.39 233.865 75.85 234.425 76.19C234.985 76.51 235.625 76.67 236.345 76.67ZM253.411 80.3C251.951 80.3 250.631 79.97 249.451 79.31C248.291 78.63 247.361 77.72 246.661 76.58C245.981 75.42 245.641 74.13 245.641 72.71C245.641 71.29 245.981 70.02 246.661 68.9C247.341 67.76 248.271 66.86 249.451 66.2C250.631 65.52 251.941 65.18 253.381 65.18C254.861 65.18 256.181 65.52 257.341 66.2C258.521 66.86 259.451 67.76 260.131 68.9C260.811 70.02 261.151 71.29 261.151 72.71C261.151 74.13 260.811 75.42 260.131 76.58C259.451 77.72 258.521 78.63 257.341 79.31C256.181 79.97 254.871 80.3 253.411 80.3ZM253.381 76.64C254.121 76.64 254.771 76.48 255.331 76.16C255.911 75.82 256.351 75.36 256.651 74.78C256.971 74.18 257.131 73.5 257.131 72.74C257.131 71.98 256.971 71.31 256.651 70.73C256.331 70.15 255.891 69.7 255.331 69.38C254.771 69.04 254.121 68.87 253.381 68.87C252.661 68.87 252.021 69.04 251.461 69.38C250.901 69.7 250.461 70.15 250.141 70.73C249.821 71.31 249.661 71.98 249.661 72.74C249.661 73.5 249.821 74.18 250.141 74.78C250.461 75.36 250.901 75.82 251.461 76.16C252.021 76.48 252.661 76.64 253.381 76.64ZM269.741 80.3C268.421 80.3 267.231 79.97 266.171 79.31C265.111 78.65 264.281 77.75 263.681 76.61C263.081 75.47 262.781 74.19 262.781 72.77C262.781 71.33 263.081 70.04 263.681 68.9C264.281 67.76 265.111 66.86 266.171 66.2C267.231 65.54 268.421 65.21 269.741 65.21C270.781 65.21 271.711 65.42 272.531 65.84C273.351 66.26 274.001 66.85 274.481 67.61C274.981 68.35 275.251 69.19 275.291 70.13V75.35C275.251 76.31 274.981 77.16 274.481 77.9C274.001 78.64 273.351 79.23 272.531 79.67C271.711 80.09 270.781 80.3 269.741 80.3ZM270.461 76.67C271.561 76.67 272.451 76.31 273.131 75.59C273.811 74.85 274.151 73.9 274.151 72.74C274.151 71.98 273.991 71.31 273.671 70.73C273.371 70.13 272.941 69.67 272.381 69.35C271.841 69.01 271.201 68.84 270.461 68.84C269.741 68.84 269.101 69.01 268.541 69.35C268.001 69.67 267.571 70.13 267.251 70.73C266.951 71.31 266.801 71.98 266.801 72.74C266.801 73.52 266.951 74.21 267.251 74.81C267.571 75.39 268.001 75.85 268.541 76.19C269.101 76.51 269.741 76.67 270.461 76.67ZM273.941 80V76.1L274.571 72.56L273.941 69.08V65.51H277.841V80H273.941ZM281.318 80V65.51H285.248V80H281.318ZM285.248 71.99L283.718 70.97C283.898 69.19 284.418 67.79 285.278 66.77C286.138 65.73 287.378 65.21 288.998 65.21C289.698 65.21 290.328 65.33 290.888 65.57C291.448 65.79 291.958 66.16 292.418 66.68L289.958 69.5C289.738 69.26 289.468 69.08 289.148 68.96C288.848 68.84 288.498 68.78 288.098 68.78C287.258 68.78 286.568 69.05 286.028 69.59C285.508 70.11 285.248 70.91 285.248 71.99ZM299.508 80.3C298.168 80.3 296.968 79.97 295.908 79.31C294.848 78.65 294.008 77.75 293.388 76.61C292.788 75.47 292.488 74.19 292.488 72.77C292.488 71.33 292.788 70.04 293.388 68.9C294.008 67.76 294.838 66.86 295.878 66.2C296.938 65.54 298.148 65.21 299.508 65.21C300.548 65.21 301.478 65.42 302.298 65.84C303.138 66.26 303.808 66.85 304.308 67.61C304.828 68.35 305.108 69.19 305.148 70.13V75.29C305.108 76.23 304.838 77.08 304.338 77.84C303.838 78.6 303.168 79.2 302.328 79.64C301.488 80.08 300.548 80.3 299.508 80.3ZM300.168 76.67C300.908 76.67 301.548 76.51 302.088 76.19C302.648 75.85 303.078 75.39 303.378 74.81C303.698 74.21 303.858 73.52 303.858 72.74C303.858 71.98 303.698 71.31 303.378 70.73C303.078 70.13 302.648 69.67 302.088 69.35C301.548 69.01 300.918 68.84 300.198 68.84C299.458 68.84 298.808 69.01 298.248 69.35C297.708 69.69 297.278 70.15 296.958 70.73C296.658 71.31 296.508 71.98 296.508 72.74C296.508 73.52 296.658 74.21 296.958 74.81C297.278 75.39 297.718 75.85 298.278 76.19C298.838 76.51 299.468 76.67 300.168 76.67ZM307.548 80H303.648V76.1L304.278 72.56L303.618 69.08V58.31H307.548V80ZM320.305 72.17V68.84H325.195C325.835 68.84 326.415 68.71 326.935 68.45C327.455 68.19 327.865 67.82 328.165 67.34C328.465 66.84 328.615 66.24 328.615 65.54C328.615 64.86 328.465 64.27 328.165 63.77C327.865 63.27 327.455 62.89 326.935 62.63C326.415 62.37 325.835 62.24 325.195 62.24H320.305V58.91H325.615C326.955 58.91 328.155 59.18 329.215 59.72C330.295 60.26 331.145 61.03 331.765 62.03C332.385 63.01 332.695 64.18 332.695 65.54C332.695 66.9 332.385 68.08 331.765 69.08C331.145 70.06 330.295 70.82 329.215 71.36C328.155 71.9 326.955 72.17 325.615 72.17H320.305ZM317.305 80V58.91H321.385V80H317.305ZM340.757 80.3C339.437 80.3 338.247 79.97 337.187 79.31C336.127 78.65 335.297 77.75 334.697 76.61C334.097 75.47 333.797 74.19 333.797 72.77C333.797 71.33 334.097 70.04 334.697 68.9C335.297 67.76 336.127 66.86 337.187 66.2C338.247 65.54 339.437 65.21 340.757 65.21C341.797 65.21 342.727 65.42 343.547 65.84C344.367 66.26 345.017 66.85 345.497 67.61C345.997 68.35 346.267 69.19 346.307 70.13V75.35C346.267 76.31 345.997 77.16 345.497 77.9C345.017 78.64 344.367 79.23 343.547 79.67C342.727 80.09 341.797 80.3 340.757 80.3ZM341.477 76.67C342.577 76.67 343.467 76.31 344.147 75.59C344.827 74.85 345.167 73.9 345.167 72.74C345.167 71.98 345.007 71.31 344.687 70.73C344.387 70.13 343.957 69.67 343.397 69.35C342.857 69.01 342.217 68.84 341.477 68.84C340.757 68.84 340.117 69.01 339.557 69.35C339.017 69.67 338.587 70.13 338.267 70.73C337.967 71.31 337.817 71.98 337.817 72.74C337.817 73.52 337.967 74.21 338.267 74.81C338.587 75.39 339.017 75.85 339.557 76.19C340.117 76.51 340.757 76.67 341.477 76.67ZM344.957 80V76.1L345.587 72.56L344.957 69.08V65.51H348.857V80H344.957ZM362.084 80V71.69C362.084 70.83 361.814 70.13 361.274 69.59C360.734 69.05 360.034 68.78 359.174 68.78C358.614 68.78 358.114 68.9 357.674 69.14C357.234 69.38 356.884 69.72 356.624 70.16C356.384 70.6 356.264 71.11 356.264 71.69L354.734 70.91C354.734 69.77 354.974 68.78 355.454 67.94C355.954 67.08 356.634 66.41 357.494 65.93C358.374 65.45 359.364 65.21 360.464 65.21C361.524 65.21 362.474 65.48 363.314 66.02C364.154 66.54 364.814 67.23 365.294 68.09C365.774 68.93 366.014 69.84 366.014 70.82V80H362.084ZM352.334 80V65.51H356.264V80H352.334ZM376.109 80.3C374.589 80.3 373.239 79.98 372.059 79.34C370.879 78.68 369.939 77.78 369.239 76.64C368.559 75.5 368.219 74.2 368.219 72.74C368.219 71.3 368.549 70.02 369.209 68.9C369.889 67.76 370.809 66.86 371.969 66.2C373.129 65.52 374.419 65.18 375.839 65.18C377.239 65.18 378.469 65.5 379.529 66.14C380.609 66.76 381.449 67.62 382.049 68.72C382.669 69.8 382.979 71.03 382.979 72.41C382.979 72.67 382.959 72.94 382.919 73.22C382.899 73.48 382.849 73.78 382.769 74.12L370.589 74.15V71.21L380.939 71.18L379.349 72.41C379.309 71.55 379.149 70.83 378.869 70.25C378.609 69.67 378.219 69.23 377.699 68.93C377.199 68.61 376.579 68.45 375.839 68.45C375.059 68.45 374.379 68.63 373.799 68.99C373.219 69.33 372.769 69.82 372.449 70.46C372.149 71.08 371.999 71.82 371.999 72.68C371.999 73.56 372.159 74.33 372.479 74.99C372.819 75.63 373.299 76.13 373.919 76.49C374.539 76.83 375.259 77 376.079 77C376.819 77 377.489 76.88 378.089 76.64C378.689 76.38 379.209 76 379.649 75.5L381.959 77.81C381.259 78.63 380.399 79.25 379.379 79.67C378.379 80.09 377.289 80.3 376.109 80.3ZM385.41 80V58.31H389.34V80H385.41Z" fill="#000B6D"/>
<path d="M266.532 41.34C264.787 41.34 263.166 41.034 261.67 40.422C260.174 39.7873 258.859 38.9147 257.726 37.804C256.615 36.6707 255.754 35.356 255.142 33.86C254.553 32.364 254.258 30.7547 254.258 29.032C254.258 27.3093 254.553 25.7 255.142 24.204C255.754 22.708 256.615 21.4047 257.726 20.294C258.859 19.1833 260.163 18.3107 261.636 17.676C263.132 17.0413 264.764 16.724 266.532 16.724C268.436 16.724 270.113 17.0413 271.564 17.676C273.015 18.288 274.295 19.138 275.406 20.226L272.278 23.354C271.621 22.6287 270.816 22.062 269.864 21.654C268.912 21.246 267.801 21.042 266.532 21.042C265.421 21.042 264.401 21.2347 263.472 21.62C262.565 21.9827 261.772 22.5267 261.092 23.252C260.412 23.9547 259.891 24.8047 259.528 25.802C259.165 26.7767 258.984 27.8533 258.984 29.032C258.984 30.2333 259.165 31.3213 259.528 32.296C259.891 33.2707 260.412 34.1207 261.092 34.846C261.772 35.5487 262.565 36.0927 263.472 36.478C264.401 36.8633 265.421 37.056 266.532 37.056C267.869 37.056 269.014 36.852 269.966 36.444C270.941 36.036 271.757 35.458 272.414 34.71L275.542 37.838C274.431 38.9487 273.139 39.81 271.666 40.422C270.193 41.034 268.481 41.34 266.532 41.34ZM278.281 41V24.578H282.769V41H278.281ZM280.525 21.926C279.799 21.926 279.199 21.688 278.723 21.212C278.247 20.7133 278.009 20.1013 278.009 19.376C278.009 18.6733 278.247 18.0727 278.723 17.574C279.199 17.0753 279.799 16.826 280.525 16.826C281.273 16.826 281.873 17.0753 282.327 17.574C282.803 18.0727 283.041 18.6733 283.041 19.376C283.041 20.1013 282.803 20.7133 282.327 21.212C281.873 21.688 281.273 21.926 280.525 21.926ZM289.128 41V17.744H293.582V41H289.128ZM285.286 28.488V24.578H297.424V28.488H285.286ZM305.097 41.136L298.229 24.578H303.057L307.613 37.226H305.981L310.707 24.578H315.569L308.259 41.136H305.097ZM300.541 47.868L305.539 37.294L308.259 41.136L305.267 47.868H300.541ZM325.238 41.34C323.311 41.34 321.656 41.0113 320.274 40.354C318.914 39.6967 317.678 38.7107 316.568 37.396L319.628 34.336C320.33 35.2653 321.146 35.9907 322.076 36.512C323.005 37.0107 324.138 37.26 325.476 37.26C326.677 37.26 327.629 37.022 328.332 36.546C329.057 36.07 329.42 35.4127 329.42 34.574C329.42 33.8487 329.216 33.2593 328.808 32.806C328.4 32.3527 327.856 31.9673 327.176 31.65C326.518 31.3327 325.782 31.0493 324.966 30.8C324.172 30.528 323.368 30.222 322.552 29.882C321.758 29.542 321.022 29.1227 320.342 28.624C319.684 28.1027 319.152 27.4453 318.744 26.652C318.336 25.836 318.132 24.816 318.132 23.592C318.132 22.1413 318.483 20.906 319.186 19.886C319.888 18.866 320.852 18.084 322.076 17.54C323.3 16.996 324.682 16.724 326.224 16.724C327.856 16.724 329.329 17.03 330.644 17.642C331.958 18.254 333.035 19.0473 333.874 20.022L330.814 23.082C330.111 22.3113 329.386 21.7447 328.638 21.382C327.912 21.0193 327.085 20.838 326.156 20.838C325.09 20.838 324.252 21.042 323.64 21.45C323.028 21.858 322.722 22.4473 322.722 23.218C322.722 23.8753 322.926 24.408 323.334 24.816C323.742 25.224 324.274 25.5753 324.932 25.87C325.612 26.1647 326.348 26.448 327.142 26.72C327.958 26.992 328.762 27.298 329.556 27.638C330.372 27.978 331.108 28.42 331.766 28.964C332.446 29.508 332.99 30.2107 333.398 31.072C333.806 31.9107 334.01 32.9533 334.01 34.2C334.01 36.4213 333.228 38.1667 331.664 39.436C330.1 40.7053 327.958 41.34 325.238 41.34ZM346.295 41.34C345.116 41.34 344.051 41.102 343.099 40.626C342.147 40.1273 341.388 39.4587 340.821 38.62C340.254 37.7813 339.948 36.818 339.903 35.73V29.916C339.948 28.828 340.254 27.8647 340.821 27.026C341.41 26.1647 342.17 25.4847 343.099 24.986C344.051 24.4873 345.116 24.238 346.295 24.238C347.814 24.238 349.174 24.612 350.375 25.36C351.576 26.108 352.517 27.128 353.197 28.42C353.9 29.712 354.251 31.174 354.251 32.806C354.251 34.4153 353.9 35.866 353.197 37.158C352.517 38.45 351.576 39.47 350.375 40.218C349.174 40.966 347.814 41.34 346.295 41.34ZM337.183 47.868V24.578H341.637V28.896L340.889 32.874L341.603 36.852V47.868H337.183ZM345.513 37.226C346.329 37.226 347.054 37.0447 347.689 36.682C348.324 36.2967 348.811 35.7753 349.151 35.118C349.514 34.438 349.695 33.656 349.695 32.772C349.695 31.9107 349.514 31.1513 349.151 30.494C348.811 29.814 348.324 29.2927 347.689 28.93C347.054 28.5447 346.329 28.352 345.513 28.352C344.72 28.352 344.006 28.5447 343.371 28.93C342.736 29.2927 342.238 29.814 341.875 30.494C341.535 31.1513 341.365 31.9107 341.365 32.772C341.365 33.656 341.535 34.438 341.875 35.118C342.238 35.7753 342.725 36.2967 343.337 36.682C343.972 37.0447 344.697 37.226 345.513 37.226ZM364.889 41.34C363.235 41.34 361.739 40.966 360.401 40.218C359.087 39.4473 358.033 38.416 357.239 37.124C356.469 35.8093 356.083 34.3473 356.083 32.738C356.083 31.1287 356.469 29.6893 357.239 28.42C358.01 27.128 359.064 26.108 360.401 25.36C361.739 24.5893 363.223 24.204 364.855 24.204C366.533 24.204 368.029 24.5893 369.343 25.36C370.681 26.108 371.735 27.128 372.505 28.42C373.276 29.6893 373.661 31.1287 373.661 32.738C373.661 34.3473 373.276 35.8093 372.505 37.124C371.735 38.416 370.681 39.4473 369.343 40.218C368.029 40.966 366.544 41.34 364.889 41.34ZM364.855 37.192C365.694 37.192 366.431 37.0107 367.065 36.648C367.723 36.2627 368.221 35.7413 368.561 35.084C368.924 34.404 369.105 33.6333 369.105 32.772C369.105 31.9107 368.924 31.1513 368.561 30.494C368.199 29.8367 367.7 29.3267 367.065 28.964C366.431 28.5787 365.694 28.386 364.855 28.386C364.039 28.386 363.314 28.5787 362.679 28.964C362.045 29.3267 361.546 29.8367 361.183 30.494C360.821 31.1513 360.639 31.9107 360.639 32.772C360.639 33.6333 360.821 34.404 361.183 35.084C361.546 35.7413 362.045 36.2627 362.679 36.648C363.314 37.0107 364.039 37.192 364.855 37.192ZM378.544 41V17.744H382.998V41H378.544ZM374.702 28.488V24.578H386.84V28.488H374.702Z" fill="#000B6D"/>
</svg>
