<svg width="388" height="69" viewBox="0 0 388 69" fill="none" xmlns="http://www.w3.org/2000/svg">
<path d="M227.957 33.8504C228.124 33.8968 228.292 33.9431 228.465 33.9909C234.947 35.7951 241.008 39.0849 245.928 44.7502C246.067 44.9088 246.206 45.0673 246.349 45.2307C247.051 46.0597 247.551 46.7119 247.817 47.9103C247.959 47.9103 248.102 47.9103 248.248 47.9103C251.922 54.1824 253.061 61.3799 252.998 69C252.411 68.265 252.368 67.6087 252.175 66.6004C251.577 63.6469 250.672 61.0024 249.328 58.4551C249.228 58.2662 249.129 58.0773 249.026 57.8827C247.214 54.6599 244.301 52.0619 241.187 51.2777C240.434 51.1473 239.723 51.134 238.963 51.1453C238.672 51.1443 238.381 51.1427 238.09 51.1406C237.638 51.1377 237.188 51.1379 236.736 51.1483C234.825 51.1876 233.52 50.9903 232.085 49.2797C231.933 49.0955 231.782 48.9112 231.627 48.7214C231.271 48.3923 230.912 48.0701 230.547 47.7582C230.284 47.5313 230.284 47.5313 230.016 47.2998C229.745 47.0666 229.745 47.0666 229.468 46.8287C229.063 46.4743 228.658 46.1195 228.254 45.7641C228.073 45.6055 227.892 45.4469 227.706 45.2835C227.575 45.1689 227.444 45.0542 227.309 44.9361C227.978 44.0727 228.644 43.4008 229.468 42.773C229.61 42.773 229.753 42.773 229.9 42.773C229.9 42.5946 229.9 42.4161 229.9 42.2322C229.564 42.239 229.564 42.239 229.223 42.246C228.499 42.2341 227.846 42.1564 227.134 42.0126C224.682 41.551 222.217 41.225 219.754 40.8803C219.457 40.8384 219.457 40.8384 219.154 40.7956C218.626 40.7212 218.097 40.6483 217.568 40.5762C217.351 40.5456 217.351 40.5456 217.129 40.5144C214.233 40.1281 211.335 40.0218 208.425 40.0048C208.251 40.0035 208.077 40.0021 207.898 40.0008C206.584 39.991 205.269 39.9867 203.955 39.9847C203.665 39.9842 203.665 39.9842 203.37 39.9836C197.276 39.9752 191.265 40.167 185.215 41.1507C184.863 41.2063 184.511 41.2618 184.158 41.3172C181.192 41.7881 178.238 42.3434 175.285 42.9272C167.328 44.4978 159.27 45.4453 151.242 46.2297C150.683 46.2873 150.124 46.3534 149.566 46.4206C144.793 46.9635 139.977 46.8876 135.189 46.8937C134.401 46.8949 133.613 46.8986 132.825 46.9048C118.957 47.0109 103.866 45.7709 91.0964 38.4469C90.9235 38.3494 90.7506 38.252 90.5724 38.1516C87.569 36.4499 84.766 34.5316 82.0299 32.2281C82.8315 31.8935 83.251 32.0491 84.0773 32.2577C84.3645 32.3284 84.6517 32.3991 84.939 32.4697C85.0896 32.5076 85.2402 32.5454 85.3954 32.5844C87.9027 33.213 90.4039 33.7688 92.9454 34.1374C93.8299 34.2667 94.6965 34.42 95.5678 34.653C96.6258 34.922 97.6791 35.1 98.7521 35.2425C98.9444 35.2688 99.1366 35.2951 99.3347 35.3223C99.9659 35.4079 100.597 35.4912 101.229 35.5741C101.557 35.6176 101.557 35.6176 101.892 35.662C105.48 36.1353 109.072 36.5368 112.67 36.8922C112.893 36.9146 113.117 36.9369 113.347 36.96C114.852 37.1094 116.357 37.2449 117.864 37.3654C118.143 37.388 118.143 37.388 118.428 37.4111C122.915 37.7555 127.417 37.677 131.91 37.671C133.062 37.6695 134.213 37.6704 135.364 37.6719C140.473 37.6778 145.571 37.6264 150.676 37.3654C151.122 37.3439 151.567 37.3225 152.013 37.3012C152.992 37.2532 153.971 37.2002 154.95 37.1436C155.518 37.1112 156.086 37.0812 156.655 37.0512C158.592 36.9434 160.509 36.7716 162.435 36.4842C163.492 36.3276 164.547 36.2078 165.61 36.1201C165.833 36.1015 165.833 36.1015 166.06 36.0825C166.372 36.0566 166.683 36.0306 166.995 36.0046C170.991 35.6646 174.965 35.115 178.941 34.5264C179.214 34.486 179.487 34.4455 179.769 34.4039C182.745 33.9617 185.72 33.5059 188.693 33.0344C190.697 32.7175 192.701 32.4444 194.713 32.2281C194.928 32.2033 195.143 32.1785 195.364 32.153C206.089 30.9544 217.415 30.834 227.957 33.8504Z" fill="#08090C"/>
<path d="M107.502 0.0527327C107.776 0.0565231 108.05 0.0603134 108.332 0.0642186C111.247 0.119015 114.141 0.473481 117.041 0.830079C117.22 0.852005 117.399 0.87393 117.583 0.89652C121.888 1.43091 126.147 2.23349 130.398 3.22972C130.699 3.29987 130.699 3.29987 131.005 3.37143C134.433 4.17523 137.815 5.10737 141.178 6.27151C141.392 6.34487 141.607 6.41824 141.827 6.49383C146.657 8.15992 151.473 10.0789 156.098 12.4945C156.836 12.879 157.582 13.2306 158.333 13.5743C160.368 14.5095 162.336 15.5918 164.303 16.7319C164.467 16.8266 164.631 16.9212 164.8 17.0187C169.936 19.9802 175.047 23.0883 179.836 26.868C180.894 27.6964 181.975 28.4734 183.056 29.2539C182.119 29.6451 181.468 29.13 180.587 28.6963C175.036 26.0677 169.304 23.9189 163.595 21.9021C162.911 21.6586 162.23 21.4082 161.548 21.1573C157.949 19.8387 154.332 18.6726 150.676 17.6275C150.53 17.5855 150.383 17.5434 150.232 17.5001C144.869 15.9616 139.475 14.6887 134.052 13.533C133.385 13.3909 132.719 13.2435 132.054 13.0889C129.051 12.4045 126.018 12.0651 122.982 11.6983C122.399 11.6275 121.816 11.5551 121.232 11.4827C120.524 11.3948 119.816 11.3078 119.108 11.2208C118.851 11.1892 118.595 11.1577 118.33 11.1252C115.755 10.8135 113.185 10.5651 110.599 10.4508C110.222 10.434 110.222 10.434 109.838 10.4169C107.153 10.3035 104.469 10.25 101.782 10.2427C101.526 10.242 101.27 10.2413 101.006 10.2406C87.4849 10.2367 73.9541 12.5515 60.8748 16.8164C62.7214 23.4559 67.8313 26.7937 72.6127 29.6954C73.5893 30.2797 74.5702 30.8515 75.5539 31.417C74.8809 31.6979 74.639 31.6836 73.9601 31.5437C73.7651 31.5038 73.57 31.4639 73.369 31.4228C73.155 31.3763 72.9411 31.3297 72.7206 31.2818C72.496 31.2339 72.2715 31.1859 72.0401 31.1366C70.0365 30.6969 68.0454 30.1871 66.0557 29.6595C65.9091 29.6208 65.7626 29.5821 65.6117 29.5422C62.3326 28.6722 59.1044 27.6529 55.8964 26.4318C55.612 26.3242 55.3277 26.2166 55.0433 26.109C52.5748 25.1722 50.1079 24.2208 47.7069 23.0352C47.4804 22.925 47.2538 22.8149 47.0205 22.7014C44.1755 21.3002 41.3797 19.7677 38.6404 18.0669C38.4943 17.9767 38.3483 17.8864 38.1978 17.7935C37.6222 17.4307 37.1563 17.1205 36.6976 16.546C40.7924 14.6038 44.8821 12.7038 49.0693 11.0934C49.6203 10.8794 50.169 10.6584 50.7172 10.4339C52.9634 9.51731 55.228 8.7427 57.5171 8.01209C58.4105 7.72593 59.2973 7.41929 60.183 7.09797C62.0494 6.42237 63.9287 5.89765 65.8347 5.4265C67.0188 5.13125 68.1835 4.79103 69.351 4.40524C71.6508 3.66319 73.9924 3.21871 76.3364 2.75655C76.5724 2.7096 76.8084 2.66265 77.0515 2.61428C81.283 1.77638 85.514 1.0936 89.7828 0.641387C90.2169 0.595194 90.651 0.546987 91.085 0.498704C96.5491 -0.0911709 102.023 -0.0311101 107.502 0.0527327Z" fill="#07080C"/>
<path d="M0 11.9495C0.121553 11.958 0.243106 11.9664 0.368342 11.9751C3.39452 12.1752 6.40686 12.2312 9.43625 12.1972C10.633 12.1854 11.8297 12.1829 13.0265 12.1797C14.0527 12.1761 15.0785 12.1665 16.1045 12.1448C24.7498 11.971 24.7498 11.971 27.9115 15.3539C28.4482 15.9107 29.0218 16.3197 29.6279 16.7488C29.8285 16.8941 30.0292 17.0395 30.2359 17.1892C31.4048 17.9983 32.5991 18.7386 33.7996 19.4706C34.166 19.6945 34.5317 19.92 34.8971 20.1465C42.8332 25.0669 51.092 28.9276 59.4987 32.3802C59.6883 32.4586 59.878 32.537 60.0734 32.6177C62.2823 33.5275 64.4937 34.3466 66.7561 35.0228C67.8172 35.3401 68.8501 35.7077 69.8873 36.1318C71.9569 36.9673 74.0658 37.5949 76.1774 38.2398C76.8262 38.4398 77.4736 38.6455 78.1207 38.8535C81.4209 39.9114 84.7394 40.8224 88.0742 41.6915C88.0742 41.7807 88.0742 41.8699 88.0742 41.9619C85.3815 41.8069 82.7118 41.49 80.0325 41.1242C76.7534 40.6775 73.4784 40.2525 70.1869 39.9783C68.6108 39.8444 67.0454 39.6461 65.4755 39.427C60.8008 38.7902 56.1048 38.4328 51.4139 38.0376C50.422 37.9539 49.4302 37.8679 48.4386 37.7789C43.3632 37.3241 38.3062 37.0192 33.2167 37.0105C32.9936 37.0095 32.7704 37.0086 32.5405 37.0076C30.1091 37.0018 27.6943 37.0925 25.2701 37.3337C25.0589 37.3541 24.8477 37.3746 24.6302 37.3957C21.846 37.702 19.4563 38.6172 17.2695 40.8803C17.0883 41.0483 16.9072 41.2163 16.7205 41.3894C15.4372 42.7745 14.6241 44.8637 14.0314 46.8287C11.5177 47.0362 11.5177 47.0362 10.5101 46.3218C9.92484 44.9643 9.9772 43.5594 10.2946 42.0791C10.5061 41.3474 10.7388 40.6331 10.9823 39.9171C11.068 39.6529 11.1537 39.3886 11.242 39.1164C11.6188 37.9565 12.0056 36.802 12.3925 35.6474C12.5954 35.0403 12.797 34.4325 12.9973 33.8241C13.1877 33.2465 13.3811 32.6706 13.5781 32.0966C14.1251 30.4385 14.4157 29.159 14.2473 27.3613C13.7417 26.5894 13.221 26.3083 12.4799 25.9587C12.2854 25.8656 12.0909 25.7725 11.8905 25.6767C11.7421 25.608 11.5938 25.5393 11.441 25.4686C11.4354 25.2758 11.4299 25.0831 11.4242 24.8845C11.3162 22.6006 10.9916 21.2596 9.62047 19.7251C8.54229 18.5641 7.36253 17.6432 6.15224 16.715C5.92559 16.5393 5.69895 16.3636 5.46543 16.1826C3.67063 14.7996 1.852 13.4787 0 12.2199C0 12.1307 0 12.0414 0 11.9495Z" fill="#07080B"/>
<path d="M266.532 41.34C264.787 41.34 263.166 41.034 261.67 40.422C260.174 39.7873 258.859 38.9147 257.726 37.804C256.615 36.6707 255.754 35.356 255.142 33.86C254.553 32.364 254.258 30.7547 254.258 29.032C254.258 27.3093 254.553 25.7 255.142 24.204C255.754 22.708 256.615 21.4047 257.726 20.294C258.859 19.1833 260.163 18.3107 261.636 17.676C263.132 17.0413 264.764 16.724 266.532 16.724C268.436 16.724 270.113 17.0413 271.564 17.676C273.015 18.288 274.295 19.138 275.406 20.226L272.278 23.354C271.621 22.6287 270.816 22.062 269.864 21.654C268.912 21.246 267.801 21.042 266.532 21.042C265.421 21.042 264.401 21.2347 263.472 21.62C262.565 21.9827 261.772 22.5267 261.092 23.252C260.412 23.9547 259.891 24.8047 259.528 25.802C259.165 26.7767 258.984 27.8533 258.984 29.032C258.984 30.2333 259.165 31.3213 259.528 32.296C259.891 33.2707 260.412 34.1207 261.092 34.846C261.772 35.5487 262.565 36.0927 263.472 36.478C264.401 36.8633 265.421 37.056 266.532 37.056C267.869 37.056 269.014 36.852 269.966 36.444C270.941 36.036 271.757 35.458 272.414 34.71L275.542 37.838C274.431 38.9487 273.139 39.81 271.666 40.422C270.193 41.034 268.481 41.34 266.532 41.34ZM278.281 41V24.578H282.769V41H278.281ZM280.525 21.926C279.799 21.926 279.199 21.688 278.723 21.212C278.247 20.7133 278.009 20.1013 278.009 19.376C278.009 18.6733 278.247 18.0727 278.723 17.574C279.199 17.0753 279.799 16.826 280.525 16.826C281.273 16.826 281.873 17.0753 282.327 17.574C282.803 18.0727 283.041 18.6733 283.041 19.376C283.041 20.1013 282.803 20.7133 282.327 21.212C281.873 21.688 281.273 21.926 280.525 21.926ZM289.128 41V17.744H293.582V41H289.128ZM285.286 28.488V24.578H297.424V28.488H285.286ZM305.097 41.136L298.229 24.578H303.057L307.613 37.226H305.981L310.707 24.578H315.569L308.259 41.136H305.097ZM300.541 47.868L305.539 37.294L308.259 41.136L305.267 47.868H300.541ZM325.238 41.34C323.311 41.34 321.656 41.0113 320.274 40.354C318.914 39.6967 317.678 38.7107 316.568 37.396L319.628 34.336C320.33 35.2653 321.146 35.9907 322.076 36.512C323.005 37.0107 324.138 37.26 325.476 37.26C326.677 37.26 327.629 37.022 328.332 36.546C329.057 36.07 329.42 35.4127 329.42 34.574C329.42 33.8487 329.216 33.2593 328.808 32.806C328.4 32.3527 327.856 31.9673 327.176 31.65C326.518 31.3327 325.782 31.0493 324.966 30.8C324.172 30.528 323.368 30.222 322.552 29.882C321.758 29.542 321.022 29.1227 320.342 28.624C319.684 28.1027 319.152 27.4453 318.744 26.652C318.336 25.836 318.132 24.816 318.132 23.592C318.132 22.1413 318.483 20.906 319.186 19.886C319.888 18.866 320.852 18.084 322.076 17.54C323.3 16.996 324.682 16.724 326.224 16.724C327.856 16.724 329.329 17.03 330.644 17.642C331.958 18.254 333.035 19.0473 333.874 20.022L330.814 23.082C330.111 22.3113 329.386 21.7447 328.638 21.382C327.912 21.0193 327.085 20.838 326.156 20.838C325.09 20.838 324.252 21.042 323.64 21.45C323.028 21.858 322.722 22.4473 322.722 23.218C322.722 23.8753 322.926 24.408 323.334 24.816C323.742 25.224 324.274 25.5753 324.932 25.87C325.612 26.1647 326.348 26.448 327.142 26.72C327.958 26.992 328.762 27.298 329.556 27.638C330.372 27.978 331.108 28.42 331.766 28.964C332.446 29.508 332.99 30.2107 333.398 31.072C333.806 31.9107 334.01 32.9533 334.01 34.2C334.01 36.4213 333.228 38.1667 331.664 39.436C330.1 40.7053 327.958 41.34 325.238 41.34ZM346.295 41.34C345.116 41.34 344.051 41.102 343.099 40.626C342.147 40.1273 341.388 39.4587 340.821 38.62C340.254 37.7813 339.948 36.818 339.903 35.73V29.916C339.948 28.828 340.254 27.8647 340.821 27.026C341.41 26.1647 342.17 25.4847 343.099 24.986C344.051 24.4873 345.116 24.238 346.295 24.238C347.814 24.238 349.174 24.612 350.375 25.36C351.576 26.108 352.517 27.128 353.197 28.42C353.9 29.712 354.251 31.174 354.251 32.806C354.251 34.4153 353.9 35.866 353.197 37.158C352.517 38.45 351.576 39.47 350.375 40.218C349.174 40.966 347.814 41.34 346.295 41.34ZM337.183 47.868V24.578H341.637V28.896L340.889 32.874L341.603 36.852V47.868H337.183ZM345.513 37.226C346.329 37.226 347.054 37.0447 347.689 36.682C348.324 36.2967 348.811 35.7753 349.151 35.118C349.514 34.438 349.695 33.656 349.695 32.772C349.695 31.9107 349.514 31.1513 349.151 30.494C348.811 29.814 348.324 29.2927 347.689 28.93C347.054 28.5447 346.329 28.352 345.513 28.352C344.72 28.352 344.006 28.5447 343.371 28.93C342.736 29.2927 342.238 29.814 341.875 30.494C341.535 31.1513 341.365 31.9107 341.365 32.772C341.365 33.656 341.535 34.438 341.875 35.118C342.238 35.7753 342.725 36.2967 343.337 36.682C343.972 37.0447 344.697 37.226 345.513 37.226ZM364.889 41.34C363.235 41.34 361.739 40.966 360.401 40.218C359.087 39.4473 358.033 38.416 357.239 37.124C356.469 35.8093 356.083 34.3473 356.083 32.738C356.083 31.1287 356.469 29.6893 357.239 28.42C358.01 27.128 359.064 26.108 360.401 25.36C361.739 24.5893 363.223 24.204 364.855 24.204C366.533 24.204 368.029 24.5893 369.343 25.36C370.681 26.108 371.735 27.128 372.505 28.42C373.276 29.6893 373.661 31.1287 373.661 32.738C373.661 34.3473 373.276 35.8093 372.505 37.124C371.735 38.416 370.681 39.4473 369.343 40.218C368.029 40.966 366.544 41.34 364.889 41.34ZM364.855 37.192C365.694 37.192 366.431 37.0107 367.065 36.648C367.723 36.2627 368.221 35.7413 368.561 35.084C368.924 34.404 369.105 33.6333 369.105 32.772C369.105 31.9107 368.924 31.1513 368.561 30.494C368.199 29.8367 367.7 29.3267 367.065 28.964C366.431 28.5787 365.694 28.386 364.855 28.386C364.039 28.386 363.314 28.5787 362.679 28.964C362.045 29.3267 361.546 29.8367 361.183 30.494C360.821 31.1513 360.639 31.9107 360.639 32.772C360.639 33.6333 360.821 34.404 361.183 35.084C361.546 35.7413 362.045 36.2627 362.679 36.648C363.314 37.0107 364.039 37.192 364.855 37.192ZM378.544 41V17.744H382.998V41H378.544ZM374.702 28.488V24.578H386.84V28.488H374.702Z" fill="#000B6D"/>
</svg>
