<?xml version="1.0" encoding="UTF-8"?>
<svg version="1.1" xmlns="http://www.w3.org/2000/svg" width="39" height="56">
<path d="M0 0 C2.37348527 0.42383666 3.83616361 0.87127141 5.75 2.375 C8.43034227 4.31080275 11.06253676 5.1632192 14.1953125 6.15625 C16 7 16 7 18 10 C18.125 12.6875 18.125 12.6875 18 15 C15.0173094 16.52448631 12.181798 17.93940067 9 19 C8.01 18.34 7.02 17.68 6 17 C2.73834852 16.68085466 2.73834852 16.68085466 -0.875 16.75 C-2.08929687 16.74484375 -3.30359375 16.7396875 -4.5546875 16.734375 C-7.95220766 16.82036899 -7.95220766 16.82036899 -10.70703125 18.1015625 C-13 19 -13 19 -15.01953125 18.5390625 C-16.6796875 17.69270833 -18.33984375 16.84635417 -20 16 C-20.76840982 8.00853789 -20.76840982 8.00853789 -18 4.375 C-13.83857623 2.46768077 -11.44580052 3.09576939 -7 4 C-7 3.01 -7 2.02 -7 1 C-6.01 1.33 -5.02 1.66 -4 2 C-4 2.66 -4 3.32 -4 4 C-2.02 4 -0.04 4 2 4 C1.34 3.67 0.68 3.34 0 3 C0 2.01 0 1.02 0 0 Z " fill="#E32442" transform="translate(21,28)"/>
<path d="M0 0 C1.9375 1.0625 1.9375 1.0625 3 3 C3.7092283 7.60998397 3.15411364 10.22023289 0.5 13.9375 C-0.325 14.948125 -1.15 15.95875 -2 17 C-5.32791006 16.39873894 -5.90981621 16.10521442 -8.25 13.375 C-10.25425142 9.50965797 -10.56716414 7.29424281 -10 3 C-7.77766882 -1.05248626 -4.20052866 -0.45005664 0 0 Z M-5 4 C-5 5.32 -5 6.64 -5 8 C-4.01 8 -3.02 8 -2 8 C-2 6.68 -2 5.36 -2 4 C-2.99 4 -3.98 4 -5 4 Z " fill="#FE3B00" transform="translate(22,7)"/>
<path d="M0 0 C1.67542976 0.28604898 3.34385343 0.61781233 5 1 C5 2.65 5 4.3 5 6 C3.02 6.99 3.02 6.99 1 8 C0.01 7.34 -0.98 6.68 -2 6 C-1.125 1.125 -1.125 1.125 0 0 Z " fill="#646971" transform="translate(29,39)"/>
<path d="M0 0 C1.65 0.33 3.3 0.66 5 1 C5.33 2.65 5.66 4.3 6 6 C4.35 6.66 2.7 7.32 1 8 C0.01 7.01 -0.98 6.02 -2 5 C-1.34 3.35 -0.68 1.7 0 0 Z " fill="#525F67" transform="translate(7,39)"/>
<path d="M0 0 C0.66 0.33 1.32 0.66 2 1 C2 2.65 2 4.3 2 6 C1.01 6.33 0.02 6.66 -1 7 C-1.33 5.02 -1.66 3.04 -2 1 C-1.34 0.67 -0.68 0.34 0 0 Z " fill="#FD153F" transform="translate(37,37)"/>
<path d="M0 0 C0.33 1.32 0.66 2.64 1 4 C-0.98 4.99 -0.98 4.99 -3 6 C-3.99 5.01 -4.98 4.02 -6 3 C-3.50907189 1.75453595 -2.58919267 2.2232422 0 3 C0 2.01 0 1.02 0 0 Z " fill="#39484E" transform="translate(33,41)"/>
</svg>
